{
  "accessors": [
    {
      "bufferView": 2,
      "componentType": 5126,
      "count": 357,
      "max": [
        1.8380069732666016,
        -0.8955940008163452,
        8.833008766174316
      ],
      "min": [
        -1.8380069732666016,
        -4.219488143920898,
        2.3433620929718018
      ],
      "type": "VEC3"
    },
    {
      "bufferView": 2,
      "byteOffset": 4284,
      "componentType": 5126,
      "count": 357,
      "max": [
        0.7775248885154724,
        -0.38779884576797485,
        0.8924673199653625
      ],
      "min": [
        -0.777522623538971,
        -0.9980993866920471,
        0.033766008913517
      ],
      "type": "VEC3"
    },
    {
      "bufferView": 1,
      "componentType": 5126,
      "count": 357,
      "max": [
        1.7402340173721313,
        2.841797113418579
      ],
      "min": [
        -0.7900390028953552,
        -1.9921879768371582
      ],
      "type": "VEC2"
    },
    {
      "bufferView": 0,
      "componentType": 5125,
      "count": 1920,
      "type": "SCALAR"
    },
    {
      "bufferView": 2,
      "byteOffset": 8568,
      "componentType": 5126,
      "count": 9975,
      "max": [
        5.410155773162842,
        3.490233898162842,
        11.617188453674316
      ],
      "min": [
        -5.410155773162842,
        -5.617187976837158,
        -11.828125
      ],
      "type": "VEC3"
    },
    {
      "bufferView": 2,
      "byteOffset": 128268,
      "componentType": 5126,
      "count": 9975,
      "max": [
        1.0,
        1.0,
        1.0
      ],
      "min": [
        -1.0,
        -1.0,
        -1.0
      ],
      "type": "VEC3"
    },
    {
      "bufferView": 1,
      "byteOffset": 2856,
      "componentType": 5126,
      "count": 9975,
      "max": [
        0.9907230138778687,
        0.9989169836044312
      ],
      "min": [
        0.00046800001291558146,
        0.0009769999887794256
      ],
      "type": "VEC2"
    },
    {
      "bufferView": 0,
      "byteOffset": 7680,
      "componentType": 5125,
      "count": 29508,
      "type": "SCALAR"
    },
    {
      "bufferView": 2,
      "byteOffset": 247968,
      "componentType": 5126,
      "count": 5578,
      "max": [
        5.5625,
        3.476562976837158,
        11.757813453674316
      ],
      "min": [
        -5.5625,
        -4.625,
        -10.65625
      ],
      "type": "VEC3"
    },
    {
      "bufferView": 2,
      "byteOffset": 314904,
      "componentType": 5126,
      "count": 5578,
      "max": [
        1.0,
        1.0,
        1.0
      ],
      "min": [
        -1.0,
        -1.0,
        -1.0
      ],
      "type": "VEC3"
    },
    {
      "bufferView": 1,
      "byteOffset": 82656,
      "componentType": 5126,
      "count": 5578,
      "max": [
        0.9985349774360657,
        0.9988359808921814
      ],
      "min": [
        0.0013340000296011567,
        0.0009769999887794256
      ],
      "type": "VEC2"
    },
    {
      "bufferView": 0,
      "byteOffset": 125712,
      "componentType": 5125,
      "count": 17373,
      "type": "SCALAR"
    },
    {
      "bufferView": 2,
      "byteOffset": 381840,
      "componentType": 5126,
      "count": 110,
      "max": [
        10.296875,
        3.359375,
        8.726563453674316
      ],
      "min": [
        -10.296875,
        -5.398437976837158,
        -9.65625
      ],
      "type": "VEC3"
    },
    {
      "bufferView": 2,
      "byteOffset": 383160,
      "componentType": 5126,
      "count": 110,
      "max": [
        1.0,
        1.0,
        0.0
      ],
      "min": [
        -1.0,
        0.0,
        -0.8682430982589722
      ],
      "type": "VEC3"
    },
    {
      "bufferView": 1,
      "byteOffset": 127280,
      "componentType": 5126,
      "count": 110,
      "max": [
        0.7309569716453552,
        0.9847949743270874
      ],
      "min": [
        0.22106899321079254,
        0.0820309966802597
      ],
      "type": "VEC2"
    },
    {
      "bufferView": 0,
      "byteOffset": 195204,
      "componentType": 5125,
      "count": 240,
      "type": "SCALAR"
    },
    {
      "bufferView": 2,
      "byteOffset": 384480,
      "componentType": 5126,
      "count": 9959,
      "max": [
        8.539063453674316,
        3.884766101837158,
        6.03125
      ],
      "min": [
        -8.539063453674316,
        -0.8696290254592896,
        -7.230469226837158
      ],
      "type": "VEC3"
    },
    {
      "bufferView": 2,
      "byteOffset": 503988,
      "componentType": 5126,
      "count": 9959,
      "max": [
        1.0,
        1.0,
        1.0
      ],
      "min": [
        -1.0,
        -1.0,
        -1.0
      ],
      "type": "VEC3"
    },
    {
      "bufferView": 1,
      "byteOffset": 128160,
      "componentType": 5126,
      "count": 9959,
      "max": [
        0.9980469942092896,
        0.7913820147514343
      ],
      "min": [
        0.0007529999711550772,
        0.0004879999905824661
      ],
      "type": "VEC2"
    },
    {
      "bufferView": 0,
      "byteOffset": 196164,
      "componentType": 5125,
      "count": 28989,
      "type": "SCALAR"
    },
    {
      "bufferView": 2,
      "byteOffset": 623496,
      "componentType": 5126,
      "count": 9978,
      "max": [
        5.535155773162842,
        3.884766101837158,
        9.421875
      ],
      "min": [
        -5.140625,
        -6.304687976837158,
        -11.304688453674316
      ],
      "type": "VEC3"
    },
    {
      "bufferView": 2,
      "byteOffset": 743232,
      "componentType": 5126,
      "count": 9978,
      "max": [
        1.0,
        1.0,
        1.0
      ],
      "min": [
        -1.0,
        -1.0,
        -1.0
      ],
      "type": "VEC3"
    },
    {
      "bufferView": 1,
      "byteOffset": 207832,
      "componentType": 5126,
      "count": 9978,
      "max": [
        0.9990230202674866,
        0.9955480098724365
      ],
      "min": [
        0.0007529999711550772,
        0.0004879999905824661
      ],
      "type": "VEC2"
    },
    {
      "bufferView": 0,
      "byteOffset": 312120,
      "componentType": 5125,
      "count": 30996,
      "type": "SCALAR"
    },
    {
      "bufferView": 2,
      "byteOffset": 862968,
      "componentType": 5126,
      "count": 9987,
      "max": [
        10.65625,
        4.375,
        9.007813453674316
      ],
      "min": [
        -10.65625,
        -6.304687976837158,
        -11.5625
      ],
      "type": "VEC3"
    },
    {
      "bufferView": 2,
      "byteOffset": 982812,
      "componentType": 5126,
      "count": 9987,
      "max": [
        1.0,
        1.0,
        1.0
      ],
      "min": [
        -1.0,
        -1.0,
        -1.0
      ],
      "type": "VEC3"
    },
    {
      "bufferView": 1,
      "byteOffset": 287656,
      "componentType": 5126,
      "count": 9987,
      "max": [
        0.9990230202674866,
        0.8641359806060791
      ],
      "min": [
        0.0010710000060498714,
        0.0004879999905824661
      ],
      "type": "VEC2"
    },
    {
      "bufferView": 0,
      "byteOffset": 436104,
      "componentType": 5125,
      "count": 34080,
      "type": "SCALAR"
    },
    {
      "bufferView": 2,
      "byteOffset": 1102656,
      "componentType": 5126,
      "count": 9946,
      "max": [
        10.65625,
        4.371094226837158,
        11.179688453674316
      ],
      "min": [
        -10.25,
        -4.84375,
        -11.3125
      ],
      "type": "VEC3"
    },
    {
      "bufferView": 2,
      "byteOffset": 1222008,
      "componentType": 5126,
      "count": 9946,
      "max": [
        1.0,
        1.0,
        1.0
      ],
      "min": [
        -1.0,
        -1.0,
        -1.0
      ],
      "type": "VEC3"
    },
    {
      "bufferView": 1,
      "byteOffset": 367552,
      "componentType": 5126,
      "count": 9946,
      "max": [
        0.9995120167732239,
        0.9986400008201599
      ],
      "min": [
        0.000990999978967011,
        0.0009769999887794256
      ],
      "type": "VEC2"
    },
    {
      "bufferView": 0,
      "byteOffset": 572424,
      "componentType": 5125,
      "count": 27099,
      "type": "SCALAR"
    },
    {
      "bufferView": 2,
      "byteOffset": 1341360,
      "componentType": 5126,
      "count": 9989,
      "max": [
        10.523438453674316,
        4.339844226837158,
        11.632813453674316
      ],
      "min": [
        -10.46875,
        -6.304687976837158,
        -9.890625
      ],
      "type": "VEC3"
    },
    {
      "bufferView": 2,
      "byteOffset": 1461228,
      "componentType": 5126,
      "count": 9989,
      "max": [
        1.0,
        1.0,
        1.0
      ],
      "min": [
        -1.0,
        -1.0,
        -1.0
      ],
      "type": "VEC3"
    },
    {
      "bufferView": 1,
      "byteOffset": 447120,
      "componentType": 5126,
      "count": 9989,
      "max": [
        0.9990230202674866,
        0.9995890259742737
      ],
      "min": [
        0.0011500000255182385,
        0.0009769999887794256
      ],
      "type": "VEC2"
    },
    {
      "bufferView": 0,
      "byteOffset": 680820,
      "componentType": 5125,
      "count": 28974,
      "type": "SCALAR"
    },
    {
      "bufferView": 2,
      "byteOffset": 1581096,
      "componentType": 5126,
      "count": 9971,
      "max": [
        10.460938453674316,
        4.179687976837158,
        10.546875
      ],
      "min": [
        -10.523438453674316,
        -4.84375,
        -11.007813453674316
      ],
      "type": "VEC3"
    },
    {
      "bufferView": 2,
      "byteOffset": 1700748,
      "componentType": 5126,
      "count": 9971,
      "max": [
        1.0,
        1.0,
        1.0
      ],
      "min": [
        -1.0,
        -1.0,
        -1.0
      ],
      "type": "VEC3"
    },
    {
      "bufferView": 1,
      "byteOffset": 527032,
      "componentType": 5126,
      "count": 9971,
      "max": [
        0.9995120167732239,
        0.9990620017051697
      ],
      "min": [
        0.0012280000373721123,
        0.06298799812793732
      ],
      "type": "VEC2"
    },
    {
      "bufferView": 0,
      "byteOffset": 796716,
      "componentType": 5125,
      "count": 27297,
      "type": "SCALAR"
    },
    {
      "bufferView": 2,
      "byteOffset": 1820400,
      "componentType": 5126,
      "count": 4227,
      "max": [
        4.09375,
        4.371094226837158,
        11.09375
      ],
      "min": [
        -10.65625,
        -0.1805420070886612,
        -3.445312976837158
      ],
      "type": "VEC3"
    },
    {
      "bufferView": 2,
      "byteOffset": 1871124,
      "componentType": 5126,
      "count": 4227,
      "max": [
        1.0,
        1.0,
        1.0
      ],
      "min": [
        -1.0,
        -1.0,
        -1.0
      ],
      "type": "VEC3"
    },
    {
      "bufferView": 1,
      "byteOffset": 606800,
      "componentType": 5126,
      "count": 4227,
      "max": [
        0.9985349774360657,
        0.7720950245857239
      ],
      "min": [
        0.0010460000485181808,
        0.12353499978780746
      ],
      "type": "VEC2"
    },
    {
      "bufferView": 0,
      "byteOffset": 905904,
      "componentType": 5125,
      "count": 11016,
      "type": "SCALAR"
    },
    {
      "bufferView": 2,
      "byteOffset": 1921848,
      "componentType": 5126,
      "count": 4763,
      "max": [
        0.5620120167732239,
        8.327648162841797,
        0.37646499276161194
      ],
      "min": [
        -0.5620120167732239,
        5.892100811004639,
        -0.5610349774360657
      ],
      "type": "VEC3"
    },
    {
      "bufferView": 2,
      "byteOffset": 1979004,
      "componentType": 5126,
      "count": 4763,
      "max": [
        1.0,
        1.0,
        1.0
      ],
      "min": [
        -1.0,
        -1.0,
        -1.0
      ],
      "type": "VEC3"
    },
    {
      "bufferView": 1,
      "byteOffset": 640616,
      "componentType": 5126,
      "count": 4763,
      "max": [
        0.9941409826278687,
        0.9974989891052246
      ],
      "min": [
        0.002500999951735139,
        0.002440999960526824
      ],
      "type": "VEC2"
    },
    {
      "bufferView": 0,
      "byteOffset": 949968,
      "componentType": 5125,
      "count": 15273,
      "type": "SCALAR"
    },
    {
      "bufferView": 2,
      "byteOffset": 2036160,
      "componentType": 5126,
      "count": 1343,
      "max": [
        0.4499509930610657,
        8.327648162841797,
        0.3823240101337433
      ],
      "min": [
        -0.5371090173721313,
        5.892100811004639,
        -0.5668950080871582
      ],
      "type": "VEC3"
    },
    {
      "bufferView": 2,
      "byteOffset": 2052276,
      "componentType": 5126,
      "count": 1343,
      "max": [
        1.0,
        1.0,
        1.0
      ],
      "min": [
        -1.0,
        -1.0,
        -1.0
      ],
      "type": "VEC3"
    },
    {
      "bufferView": 1,
      "byteOffset": 678720,
      "componentType": 5126,
      "count": 1343,
      "max": [
        0.9941409826278687,
        0.9361569881439209
      ],
      "min": [
        0.002500999951735139,
        0.002440999960526824
      ],
      "type": "VEC2"
    },
    {
      "bufferView": 0,
      "byteOffset": 1011060,
      "componentType": 5125,
      "count": 3135,
      "type": "SCALAR"
    },
    {
      "bufferView": 2,
      "byteOffset": 2068392,
      "componentType": 5126,
      "count": 1185,
      "max": [
        0.28149399161338806,
        -1.4609379768371582,
        6.503905773162842
      ],
      "min": [
        -0.28149399161338806,
        -2.128906011581421,
        5.113280773162842
      ],
      "type": "VEC3"
    },
    {
      "bufferView": 2,
      "byteOffset": 2082612,
      "componentType": 5126,
      "count": 1185,
      "max": [
        0.997884213924408,
        0.999050498008728,
        0.9999986290931702
      ],
      "min": [
        -0.9984478950500488,
        -1.0,
        -1.0
      ],
      "type": "VEC3"
    },
    {
      "bufferView": 1,
      "byteOffset": 689464,
      "componentType": 5126,
      "count": 1185,
      "max": [
        0.9941409826278687,
        0.96002197265625
      ],
      "min": [
        0.005661000031977892,
        0.006347999908030033
      ],
      "type": "VEC2"
    },
    {
      "bufferView": 0,
      "byteOffset": 1023600,
      "componentType": 5125,
      "count": 2856,
      "type": "SCALAR"
    }
  ],
  "asset": {
    "extras": {
      "author": "lazae (https://sketchfab.com/lazae)",
      "license": "CC-BY-4.0 (http://creativecommons.org/licenses/by/4.0/)",
      "source": "https://sketchfab.com/3d-models/star-wars-slave-1-2915896360224908b7369dd97ee3faa2",
      "title": "Star Wars - Slave 1"
    },
    "generator": "Sketchfab-12.48.0",
    "version": "2.0"
  },
  "bufferViews": [
    {
      "buffer": 0,
      "byteLength": 1035024,
      "name": "floatBufferViews",
      "target": 34963
    },
    {
      "buffer": 0,
      "byteLength": 698944,
      "byteOffset": 1035024,
      "byteStride": 8,
      "name": "floatBufferViews",
      "target": 34962
    },
    {
      "buffer": 0,
      "byteLength": 2096832,
      "byteOffset": 1733968,
      "byteStride": 12,
      "name": "floatBufferViews",
      "target": 34962
    }
  ],
  "buffers": [
    {
      "byteLength": 3830800,
      "uri": "scene.bin"
    }
  ],
  "images": [
    {
      "uri": "textures/initialShadingGroup_baseColor.png"
    },
    {
      "uri": "textures/lambert3SG_baseColor.png"
    },
    {
      "uri": "textures/lambert4SG_baseColor.png"
    },
    {
      "uri": "textures/lambert5SG_baseColor.png"
    }
  ],
  "materials": [
    {
      "doubleSided": true,
      "name": "initialShadingGroup",
      "pbrMetallicRoughness": {
        "baseColorTexture": {
          "index": 0
        },
        "metallicFactor": 0.3233451980789193,
        "roughnessFactor": 0.6
      }
    },
    {
      "alphaMode": "BLEND",
      "doubleSided": true,
      "name": "lambert2SG",
      "pbrMetallicRoughness": {
        "baseColorFactor": [
          0.0,
          0.0,
          0.0,
          0.9424199847408924
        ],
        "metallicFactor": 0.5721889848744183,
        "roughnessFactor": 0.12305629651181041
      }
    },
    {
      "doubleSided": true,
      "name": "lambert3SG",
      "pbrMetallicRoughness": {
        "baseColorTexture": {
          "index": 1
        },
        "metallicFactor": 0.5114953783389308,
        "roughnessFactor": 0.7299923618666859
      }
    },
    {
      "doubleSided": true,
      "name": "lambert4SG",
      "pbrMetallicRoughness": {
        "baseColorTexture": {
          "index": 2
        },
        "metallicFactor": 0.0,
        "roughnessFactor": 0.6
      }
    },
    {
      "doubleSided": true,
      "name": "lambert5SG",
      "pbrMetallicRoughness": {
        "baseColorTexture": {
          "index": 3
        },
        "metallicFactor": 0.0,
        "roughnessFactor": 0.6
      }
    }
  ],
  "meshes": [
    {
      "name": "Object_0",
      "primitives": [
        {
          "attributes": {
            "NORMAL": 1,
            "POSITION": 0,
            "TEXCOORD_0": 2
          },
          "indices": 3,
          "material": 1,
          "mode": 4
        }
      ]
    },
    {
      "name": "Object_1",
      "primitives": [
        {
          "attributes": {
            "NORMAL": 5,
            "POSITION": 4,
            "TEXCOORD_0": 6
          },
          "indices": 7,
          "material": 0,
          "mode": 4
        }
      ]
    },
    {
      "name": "Object_2",
      "primitives": [
        {
          "attributes": {
            "NORMAL": 9,
            "POSITION": 8,
            "TEXCOORD_0": 10
          },
          "indices": 11,
          "material": 0,
          "mode": 4
        }
      ]
    },
    {
      "name": "Object_3",
      "primitives": [
        {
          "attributes": {
            "NORMAL": 13,
            "POSITION": 12,
            "TEXCOORD_0": 14
          },
          "indices": 15,
          "material": 2,
          "mode": 4
        }
      ]
    },
    {
      "name": "Object_4",
      "primitives": [
        {
          "attributes": {
            "NORMAL": 17,
            "POSITION": 16,
            "TEXCOORD_0": 18
          },
          "indices": 19,
          "material": 2,
          "mode": 4
        }
      ]
    },
    {
      "name": "Object_5",
      "primitives": [
        {
          "attributes": {
            "NORMAL": 21,
            "POSITION": 20,
            "TEXCOORD_0": 22
          },
          "indices": 23,
          "material": 2,
          "mode": 4
        }
      ]
    },
    {
      "name": "Object_6",
      "primitives": [
        {
          "attributes": {
            "NORMAL": 25,
            "POSITION": 24,
            "TEXCOORD_0": 26
          },
          "indices": 27,
          "material": 2,
          "mode": 4
        }
      ]
    },
    {
      "name": "Object_7",
      "primitives": [
        {
          "attributes": {
            "NORMAL": 29,
            "POSITION": 28,
            "TEXCOORD_0": 30
          },
          "indices": 31,
          "material": 2,
          "mode": 4
        }
      ]
    },
    {
      "name": "Object_8",
      "primitives": [
        {
          "attributes": {
            "NORMAL": 33,
            "POSITION": 32,
            "TEXCOORD_0": 34
          },
          "indices": 35,
          "material": 2,
          "mode": 4
        }
      ]
    },
    {
      "name": "Object_9",
      "primitives": [
        {
          "attributes": {
            "NORMAL": 37,
            "POSITION": 36,
            "TEXCOORD_0": 38
          },
          "indices": 39,
          "material": 2,
          "mode": 4
        }
      ]
    },
    {
      "name": "Object_10",
      "primitives": [
        {
          "attributes": {
            "NORMAL": 41,
            "POSITION": 40,
            "TEXCOORD_0": 42
          },
          "indices": 43,
          "material": 2,
          "mode": 4
        }
      ]
    },
    {
      "name": "Object_11",
      "primitives": [
        {
          "attributes": {
            "NORMAL": 45,
            "POSITION": 44,
            "TEXCOORD_0": 46
          },
          "indices": 47,
          "material": 3,
          "mode": 4
        }
      ]
    },
    {
      "name": "Object_12",
      "primitives": [
        {
          "attributes": {
            "NORMAL": 49,
            "POSITION": 48,
            "TEXCOORD_0": 50
          },
          "indices": 51,
          "material": 3,
          "mode": 4
        }
      ]
    },
    {
      "name": "Object_13",
      "primitives": [
        {
          "attributes": {
            "NORMAL": 53,
            "POSITION": 52,
            "TEXCOORD_0": 54
          },
          "indices": 55,
          "material": 4,
          "mode": 4
        }
      ]
    }
  ],
  "nodes": [
    {
      "children": [
        1
      ],
      "matrix": [
        1.0,
        0.0,
        0.0,
        0.0,
        0.0,
        2.220446049250313e-16,
        -1.0,
        0.0,
        0.0,
        1.0,
        2.220446049250313e-16,
        0.0,
        0.0,
        0.0,
        0.0,
        1.0
      ],
      "name": "Sketchfab_model"
    },
    {
      "children": [
        2,
        3,
        4,
        5,
        6,
        7,
        8,
        9,
        10,
        11,
        12,
        13,
        14,
        15
      ],
      "name": "Slave1.obj.cleaner.materialmerger.gles"
    },
    {
      "mesh": 0,
      "name": "Object_2"
    },
    {
      "mesh": 1,
      "name": "Object_3"
    },
    {
      "mesh": 2,
      "name": "Object_4"
    },
    {
      "mesh": 3,
      "name": "Object_5"
    },
    {
      "mesh": 4,
      "name": "Object_6"
    },
    {
      "mesh": 5,
      "name": "Object_7"
    },
    {
      "mesh": 6,
      "name": "Object_8"
    },
    {
      "mesh": 7,
      "name": "Object_9"
    },
    {
      "mesh": 8,
      "name": "Object_10"
    },
    {
      "mesh": 9,
      "name": "Object_11"
    },
    {
      "mesh": 10,
      "name": "Object_12"
    },
    {
      "mesh": 11,
      "name": "Object_13"
    },
    {
      "mesh": 12,
      "name": "Object_14"
    },
    {
      "mesh": 13,
      "name": "Object_15"
    }
  ],
  "samplers": [
    {
      "magFilter": 9729,
      "minFilter": 9987,
      "wrapS": 10497,
      "wrapT": 10497
    }
  ],
  "scene": 0,
  "scenes": [
    {
      "name": "Sketchfab_Scene",
      "nodes": [
        0
      ]
    }
  ],
  "textures": [
    {
      "sampler": 0,
      "source": 0
    },
    {
      "sampler": 0,
      "source": 1
    },
    {
      "sampler": 0,
      "source": 2
    },
    {
      "sampler": 0,
      "source": 3
    }
  ]
}
